<svg width="121" height="21" viewBox="0 0 121 21" fill="none" xmlns="http://www.w3.org/2000/svg">
<g clip-path="url(#clip0_18_12)">
<rect width="121" height="21" fill="white"/>
<path d="M1.34648 13.0526C-0.443157 14.8709 -0.443157 17.819 1.34648 19.6373C3.13612 21.4556 6.0377 21.4556 7.82735 19.6373L15.8859 11.4496C17.6755 9.63132 17.6755 6.68324 15.8859 4.86491C14.0962 3.04659 11.1947 3.04659 9.40503 4.86491L1.34648 13.0526Z" fill="url(#paint0_linear_18_12)"/>
<path d="M7.82695 13.0526C6.03731 14.8709 6.03731 17.819 7.82695 19.6373C9.61659 21.4556 12.5182 21.4556 14.3078 19.6373L22.3664 11.4496C24.156 9.63132 24.156 6.68324 22.3664 4.86491C20.5767 3.04659 17.6751 3.04659 15.8855 4.86491L7.82695 13.0526Z" fill="url(#paint1_linear_18_12)"/>
<path d="M30.4277 13.0507L22.367 4.86328C22.7927 5.29556 23.1304 5.80882 23.3608 6.37373C23.5912 6.93865 23.7097 7.54415 23.7097 8.15564C23.7097 8.76714 23.5912 9.37264 23.3608 9.93755C23.1304 10.5025 22.7927 11.0157 22.367 11.448L19.126 14.741L23.9468 19.6317C24.8064 20.5049 25.9723 20.9955 27.1879 20.9955C28.4035 20.9955 29.5693 20.5049 30.4289 19.6317C31.2873 18.7586 31.7694 17.575 31.7692 16.3409C31.769 15.1068 31.2864 13.9234 30.4277 13.0507Z" fill="white"/>
<path d="M23.9477 19.6371C25.7373 21.4554 28.6389 21.4554 30.4285 19.6371C32.2182 17.8188 32.2182 14.8707 30.4285 13.0524L22.37 4.86468C20.5803 3.04635 17.6788 3.04636 15.8891 4.86468C14.0995 6.683 14.0995 9.63108 15.8891 11.4494L23.9477 19.6371Z" fill="url(#paint2_linear_18_12)"/>
<path d="M51.1018 5.50586V18.9914H48.4927V10.4052L45.0123 18.9914H43.0411L39.5413 10.4052V18.9914H36.9346V5.50586H39.8949L44.0267 15.6058L48.1585 5.50586H51.1018Z" fill="black"/>
<path d="M63.1859 14.3776H55.6454C55.7078 15.1333 55.9687 15.7259 56.428 16.1556C56.8892 16.585 57.4967 16.8153 58.1221 16.7977C59.0894 16.7977 59.778 16.3754 60.188 15.5309H62.9988C62.71 16.5275 62.1088 17.4011 61.2865 18.0188C60.4423 18.6683 59.4062 18.9926 58.178 18.9918C57.2446 19.0076 56.3233 18.7765 55.5044 18.3213C54.7238 17.8807 54.0847 17.221 53.6633 16.4211C53.2092 15.5469 52.9817 14.5695 53.0023 13.5812C53.0023 12.4972 53.2194 11.5452 53.6536 10.7254C54.067 9.92798 54.7006 9.27056 55.4765 8.83378C56.3006 8.40197 57.2139 8.17513 58.1411 8.17191C59.0684 8.16869 59.9831 8.38918 60.8102 8.81526C61.5741 9.23199 62.2017 9.86623 62.616 10.6402C63.0557 11.4747 63.2771 12.4101 63.2589 13.3565C63.2615 13.6983 63.2371 14.0398 63.1859 14.3776ZM60.561 12.5997C60.5662 12.2891 60.5035 11.9813 60.3774 11.6984C60.2513 11.4155 60.065 11.1646 59.8319 10.9637C59.349 10.5485 58.7325 10.3287 58.1002 10.3463C57.5029 10.3288 56.9212 10.5414 56.4718 10.9414C56.0302 11.339 55.7604 11.8909 55.6624 12.5972L60.561 12.5997Z" fill="black"/>
<path d="M65.1116 10.7262C65.4873 9.94912 66.0727 9.29652 66.7995 8.84445C67.5263 8.39238 68.3646 8.15946 69.2166 8.17284C69.8804 8.17138 70.5357 8.32339 71.1331 8.61734C71.7076 8.88359 72.2085 9.2899 72.5913 9.80019V5.50586H75.2296V18.9914H72.5865V17.2714C72.2485 17.8012 71.7796 18.2317 71.2266 18.5197C70.5989 18.8449 69.9016 19.007 69.1972 18.9914C68.3557 18.9996 67.5294 18.7635 66.8153 18.3111C66.0841 17.8435 65.4951 17.1788 65.114 16.3911C64.6861 15.5086 64.4724 14.5348 64.4906 13.5512C64.4703 12.5725 64.6833 11.6032 65.1116 10.7262ZM72.2316 11.9276C72.0017 11.4842 71.6534 11.1158 71.2266 10.8645C70.8141 10.6207 70.3452 10.4929 69.868 10.4941C69.389 10.4891 68.9179 10.6178 68.506 10.8662C68.0941 11.1147 67.7573 11.4733 67.5323 11.9029C67.2669 12.4056 67.135 12.9699 67.1495 13.5401C67.1367 14.1157 67.2684 14.6852 67.5323 15.1947C67.7634 15.6436 68.111 16.0197 68.5373 16.2824C68.94 16.5314 69.4027 16.6622 69.8741 16.6603C70.3513 16.6616 70.8202 16.5337 71.2327 16.2898C71.6587 16.0392 72.0069 15.6722 72.2377 15.2305C72.4953 14.7209 72.6215 14.1534 72.6047 13.5809C72.6205 13.0065 72.4921 12.4376 72.2316 11.9276Z" fill="black"/>
<path d="M78.0129 8.76668C78.5686 7.76034 79.3864 6.929 80.3765 6.36393C81.4027 5.78172 82.5615 5.48367 83.7367 5.49963C85.1893 5.49963 86.4616 5.87787 87.5537 6.63433C88.6437 7.38859 89.4505 8.49515 89.8432 9.77421H86.8465C86.5816 9.18102 86.1427 8.68551 85.5899 8.35552C85.0183 8.03243 84.3725 7.86925 83.7184 7.88263C83.0091 7.86991 82.3101 8.05665 81.6987 8.4222C81.1046 8.7875 80.6263 9.31849 80.3206 9.95201C79.9808 10.6712 79.8141 11.4622 79.8346 12.2597C79.8161 13.0538 79.9827 13.8412 80.3206 14.5575C80.6254 15.1923 81.1039 15.7243 81.6987 16.0898C82.3103 16.4549 83.0092 16.6412 83.7184 16.6281C84.3735 16.6414 85.02 16.475 85.5899 16.1466C86.1418 15.8111 86.5801 15.3128 86.8465 14.718H89.8432C89.4082 16.0671 88.6479 17.117 87.5622 17.8678C86.4766 18.6185 85.2014 18.9934 83.7367 18.9926C82.5615 19.0085 81.4027 18.7105 80.3765 18.1283C79.3883 17.5655 78.5709 16.7383 78.0129 15.7366C77.4254 14.675 77.1263 13.4737 77.1464 12.256C77.1271 11.0356 77.426 9.83169 78.0129 8.76668Z" fill="black"/>
<path d="M92.0279 10.7265C92.4071 9.94718 92.9941 9.29176 93.722 8.83491C94.4427 8.3918 95.2712 8.16255 96.1136 8.17311C96.8148 8.156 97.5091 8.31729 98.1333 8.6423C98.6778 8.92895 99.1521 9.33612 99.5211 9.8338V8.3435H102.146V18.9917H99.5211V17.2853C99.1609 17.7986 98.6851 18.2169 98.1333 18.5052C97.504 18.8356 96.8035 19.0011 96.0953 18.9867C95.2564 18.9959 94.4325 18.7597 93.722 18.3064C92.9942 17.837 92.408 17.1726 92.0279 16.3864C91.5996 15.5041 91.3858 14.5302 91.4045 13.5466C91.385 12.5692 91.5989 11.6015 92.0279 10.7265ZM99.148 11.9279C98.9181 11.4845 98.5698 11.116 98.143 10.8648C97.7305 10.621 97.2616 10.4931 96.7844 10.4944C96.3153 10.4913 95.8538 10.6153 95.4476 10.8537C95.0275 11.1047 94.6829 11.4676 94.4511 11.9032C94.1838 12.4071 94.0502 12.973 94.0635 13.5453C94.0508 14.1208 94.1821 14.69 94.4451 15.1999C94.6769 15.6482 95.0243 16.0242 95.4501 16.2876C95.8529 16.5362 96.3155 16.667 96.7868 16.6655C97.264 16.6668 97.733 16.5389 98.1455 16.295C98.5714 16.0444 98.9196 15.6774 99.1505 15.2357C99.4095 14.7248 99.537 14.1556 99.5211 13.5812C99.5363 13.0069 99.4079 12.4381 99.148 11.9279Z" fill="black"/>
<path d="M108.615 8.83489C109.181 8.51272 109.821 8.3495 110.47 8.362V11.1426H109.781C108.962 11.1426 108.344 11.3381 107.929 11.7291C107.513 12.1201 107.305 12.8008 107.305 13.7713V18.9916H104.696V8.5188H107.303V10.14C107.624 9.5987 108.076 9.14953 108.615 8.83489Z" fill="black"/>
<path d="M115.253 10.6879V15.7577C115.253 16.1108 115.337 16.366 115.504 16.5232C115.672 16.6804 115.956 16.7594 116.355 16.7603H117.57V18.9914H115.923C113.726 18.9914 112.628 17.9073 112.628 15.7392V10.6879H111.399V8.51856H112.628V5.50586H115.253V8.51856H117.562V10.6879H115.253Z" fill="black"/>
<path d="M119.651 2.82279L119.186 1.98689H118.986V2.82279H118.563V0.678092H119.355C119.499 0.674065 119.642 0.704074 119.773 0.765757C119.88 0.817051 119.969 0.899574 120.03 1.00282C120.089 1.10335 120.118 1.21829 120.117 1.33496C120.119 1.47939 120.072 1.62026 119.984 1.73307C119.895 1.84587 119.77 1.92345 119.63 1.95232L120.135 2.81662L119.651 2.82279ZM118.986 1.66463H119.341C119.387 1.66837 119.434 1.66277 119.478 1.64814C119.522 1.63352 119.563 1.61016 119.598 1.57943C119.627 1.54848 119.65 1.51163 119.664 1.47124C119.679 1.43085 119.685 1.3878 119.683 1.34484C119.686 1.30191 119.68 1.25879 119.665 1.21849C119.65 1.17819 119.627 1.14167 119.596 1.11148C119.524 1.0542 119.433 1.02686 119.341 1.03492H118.988L118.986 1.66463Z" fill="black"/>
<path d="M119.284 0.185207C119.589 0.184963 119.887 0.276609 120.141 0.448547C120.394 0.620485 120.592 0.864988 120.709 1.15112C120.825 1.43725 120.856 1.75214 120.797 2.05596C120.737 2.35977 120.59 2.63885 120.375 2.85788C120.159 3.07691 119.885 3.22605 119.586 3.28642C119.286 3.34679 118.977 3.31568 118.695 3.19703C118.413 3.07838 118.173 2.87752 118.003 2.61986C117.834 2.36221 117.744 2.05934 117.744 1.74959C117.745 1.33489 117.907 0.937362 118.196 0.644125C118.485 0.350888 118.876 0.18586 119.284 0.185207ZM119.284 4.35265e-07C118.943 -0.000243756 118.61 0.102264 118.326 0.294553C118.043 0.486842 117.822 0.760271 117.691 1.08024C117.56 1.40021 117.526 1.75235 117.593 2.09209C117.659 2.43183 117.823 2.74391 118.064 2.98884C118.305 3.23377 118.612 3.40055 118.947 3.46806C119.281 3.53558 119.628 3.50081 119.943 3.36814C120.258 3.23547 120.527 3.01087 120.716 2.72276C120.905 2.43465 121.006 2.09597 121.006 1.74959C121.006 1.28557 120.825 0.840554 120.502 0.512443C120.179 0.184331 119.741 4.35265e-07 119.284 4.35265e-07Z" fill="black"/>
</g>
<defs>
<linearGradient id="paint0_linear_18_12" x1="1.34709" y1="19.6358" x2="16.1173" y2="5.09852" gradientUnits="userSpaceOnUse">
<stop stop-color="#FE316A"/>
<stop offset="1" stop-color="#832E8B"/>
</linearGradient>
<linearGradient id="paint1_linear_18_12" x1="7.82756" y1="19.6375" x2="22.5978" y2="5.10027" gradientUnits="userSpaceOnUse">
<stop stop-color="#FE316A"/>
<stop offset="0.14" stop-color="#FE4D6B"/>
<stop offset="0.56" stop-color="#FF996F"/>
<stop offset="0.85" stop-color="#FFCA71"/>
<stop offset="1" stop-color="#FFDC72"/>
</linearGradient>
<linearGradient id="paint2_linear_18_12" x1="30.4285" y1="19.6356" x2="15.6583" y2="5.09828" gradientUnits="userSpaceOnUse">
<stop stop-color="#832E8B"/>
<stop offset="1" stop-color="#FE316A" stop-opacity="0.25"/>
</linearGradient>
<clipPath id="clip0_18_12">
<rect width="121" height="21" fill="white"/>
</clipPath>
</defs>
</svg>

